{"title":"Singh.is.Bling.2015.DVDRip.x264.HiNDi.ESubs-ViZNU [P2PDL]","uid":12942954,"size":533621678,"categoryP":"video","categoryS":"movies","magnet":"?xt=urn:btih:886c511031158571e488257cce545ac326630b79&amp;dn=Singh.is.Bling.2015.DVDRip.x264.HiNDi.ESubs-ViZNU+%5BP2PDL%5D&amp;tr=udp%3A%2F%2Ftracker.leechers-paradise.org%3A6969&amp;tr=udp%3A%2F%2Fzer0day.ch%3A1337&amp;tr=udp%3A%2F%2Fopen.demonii.com%3A1337&amp;tr=udp%3A%2F%2Ftracker.coppersurfer.tk%3A6969&amp;tr=udp%3A%2F%2Fexodus.desync.com%3A6969","seeders":10,"leechers":2,"uploader":"VYTOP2PDL","files":6,"time":1449646493,"description":"Singh.is.Bling.2015.DVDRip.x264.HiNDi.ESubs-ViZNU\r\n\r\n\r\nGenre: Action, Comedy, Drama \r\nIMDb: http://www.imdb.com/title/tt3696192/\r\n\r\n\r\nGeneral\r\nFormat                         : MPEG-4\r\nFile size                      : 502 MiB\r\nDuration                       : 2h 13mn\r\nOverall bit rate               : 526 Kbps\r\n\r\nVideo\r\nFormat                         : AVC\r\nBit rate                       : 491 Kbps\r\nWidth                          : 656 pixels\r\nHeight                         : 272 pixels\r\nDisplay aspect ratio           : 2.40:1\r\nFrame rate mode                : Constant\r\nFrame rate                     : 23.976 fps\r\nBit depth                      : 8 bits\r\nStream size                    : 469 MiB (93%)\r\nWriting library                : x264\r\n\r\nAudio\r\nFormat                         : AAC\r\nBit rate mode                  : Variable\r\nBit rate                       : 31.8 Kbps\r\nChannel(s)                     : 2 channels\r\nChannel positions              : Front: L R \r\nSampling rate                  : 48.0 KHz \r\nStream size                    : 30.4 MiB (6%)\r\nLanguage                       : Hindi\r\n\r\nSubtitle                       : Yes (English)\r\n\r\nScreen shots:\r\n \nhttp://ititli.com/FS \nhttp://ititli.com/FZ \nhttp://ititli.com/Fc \nhttp://ititli.com/Fi \nhttp://ititli.com/Fp \nhttp://ititli.com/FD \nhttp://ititli.com/Fa \nhttp://ititli.com/Fb \nhttp://ititli.com/Fz\r\n\r\n----------------------------------------------------------------------------------------------------\r\n\r\n\r\nEncoder Notes: Looking For Early Access To Anything You Can Provide WEBDL, DVDScr, DVDR, BluRay,\r\nDirect Audio, Music Releases and Seedboxes. If You Got anything to offer please contact us.\r\n\r\nSupport us by donating BC - 1FgwdzPsd1y25Gea8wP1qni35uGCtmkRCD\r\n\r\nSend some love!\r\nFind us and join us!","torrent":{"xt":"urn:btih:886c511031158571e488257cce545ac326630b79","amp;dn":"Singh.is.Bling.2015.DVDRip.x264.HiNDi.ESubs-ViZNU+%5BP2PDL%5D","amp;tr":["udp%3A%2F%2Ftracker.leechers-paradise.org%3A6969","udp%3A%2F%2Fzer0day.ch%3A1337","udp%3A%2F%2Fopen.demonii.com%3A1337","udp%3A%2F%2Ftracker.coppersurfer.tk%3A6969","udp%3A%2F%2Fexodus.desync.com%3A6969"],"infoHash":"886c511031158571e488257cce545ac326630b79","infoHashBuffer":{"type":"Buffer","data":[136,108,81,16,49,21,133,113,228,136,37,124,206,84,90,195,38,99,11,121]},"announce":[],"urlList":[]}}